<?xml version="1.0" standalone="no"?>
<!DOCTYPE svg PUBLIC "-//W3C//DTD SVG 20010904//EN"
 "http://www.w3.org/TR/2001/REC-SVG-20010904/DTD/svg10.dtd">
<svg version="1.0" xmlns="http://www.w3.org/2000/svg"
 width="300.000000pt" height="300.000000pt" viewBox="0 0 300.000000 300.000000"
 preserveAspectRatio="xMidYMid meet">
<metadata>
Created by potrace 1.10, written by Peter Selinger 2001-2011
</metadata>
<g transform="translate(0.000000,300.000000) scale(0.100000,-0.100000)"
fill="#000000" stroke="none">
<path d="M1331 2285 c-167 -47 -310 -196 -356 -370 -29 -115 -12 -267 42 -367
39 -71 45 -58 7 16 -146 290 34 655 354 717 82 15 202 7 273 -20 31 -12 83
-40 115 -63 32 -22 52 -32 44 -22 -24 31 -41 42 -120 80 -71 35 -82 37 -190
40 -82 3 -131 0 -169 -11z"/>
<path d="M1415 2269 c-118 -14 -249 -85 -318 -174 -39 -49 -82 -140 -97 -204
-26 -112 1 -267 65 -363 37 -56 42 -40 6 17 -47 75 -65 139 -65 240 -1 115 28
202 93 288 138 182 388 239 592 137 24 -12 52 -29 62 -38 9 -8 17 -11 17 -6 0
11 -89 65 -135 83 -46 17 -154 27 -220 20z"/>
<path d="M1845 2140 c-3 -5 2 -10 12 -10 10 -1 36 -7 58 -15 54 -20 57 -10 4
15 -50 22 -65 24 -74 10z"/>
<path d="M1585 2078 c-51 -57 -78 -103 -72 -121 2 -7 14 8 27 33 12 25 41 66
62 93 53 63 42 60 -17 -5z"/>
<path d="M1675 2098 c-66 -44 -129 -138 -175 -263 -50 -136 -83 -196 -143
-261 -65 -71 -132 -104 -214 -104 -74 0 -125 19 -170 62 -18 18 -33 27 -33 22
0 -15 60 -69 100 -90 26 -14 57 -19 120 -19 75 0 91 3 136 28 112 62 169 142
244 340 60 156 105 228 172 273 39 27 44 33 28 37 -12 3 -38 -7 -65 -25z
m-124 -223 c-26 -58 -47 -60 -24 -2 19 50 36 74 41 59 2 -6 -6 -32 -17 -57z"/>
<path d="M1843 2090 c82 -122 102 -184 101 -305 0 -85 -5 -110 -27 -164 -51
-123 -146 -217 -268 -268 -56 -23 -79 -26 -174 -27 -97 0 -118 3 -172 26 -35
15 -77 36 -94 48 -16 12 -32 20 -35 17 -8 -8 88 -64 141 -82 67 -23 193 -31
264 -15 172 37 323 179 366 345 19 73 19 173 1 241 -17 63 -70 166 -99 191
-21 18 -21 18 -4 -7z"/>
<path d="M1870 2103 c0 -6 5 -15 11 -19 6 -3 26 -38 44 -76 147 -307 -39 -657
-377 -710 -132 -20 -278 17 -383 98 -20 15 -38 24 -41 22 -9 -9 113 -85 174
-109 79 -31 227 -38 308 -14 322 93 476 434 329 725 -26 52 -64 101 -65 83z"/>
<path d="M1718 2060 c-68 -56 -101 -207 -79 -364 14 -102 35 -144 80 -163 71
-30 152 25 150 102 0 29 -1 29 -15 -9 -19 -53 -32 -66 -64 -66 -38 0 -58 27
-71 95 -16 87 1 329 28 393 8 19 13 36 11 38 -2 2 -20 -10 -40 -26z m-22 -231
c-6 -164 -5 -161 -19 -156 -28 9 -33 229 -6 279 22 41 30 1 25 -123z"/>
<path d="M1188 2048 c-59 -10 -108 -62 -108 -116 0 -37 40 -112 60 -112 16 0
12 12 -12 37 -15 16 -21 36 -22 69 -1 38 3 50 27 70 28 24 79 32 105 15 18
-11 34 -178 27 -266 -8 -90 -29 -165 -56 -199 -25 -32 -19 -44 15 -28 45 20
61 95 61 279 0 107 3 159 10 153 5 -5 35 -61 65 -124 30 -64 58 -116 61 -116
4 0 12 20 19 44 11 40 10 47 -12 85 -21 37 -47 59 -35 29 19 -48 20 -51 9 -44
-7 4 -12 11 -12 16 0 14 -90 130 -100 130 -5 0 -16 14 -25 30 -15 30 -15 30
12 30 15 0 38 -10 51 -22 l25 -23 -16 31 c-9 17 -15 33 -12 35 6 7 -91 4 -137
-3z"/>
<path d="M1450 1959 c-11 -26 -11 -33 3 -46 15 -15 18 -15 37 2 18 16 19 20 5
27 -8 5 -15 15 -15 23 0 27 -18 24 -30 -6z"/>
<path d="M1481 1882 c-6 -12 -11 -31 -10 -44 0 -17 4 -14 15 16 15 43 12 60
-5 28z"/>
<path d="M1487 1636 c-15 -32 -13 -76 3 -76 8 0 24 99 17 106 -2 2 -11 -11
-20 -30z"/>
<path d="M2328 1145 c-7 -25 -15 -45 -19 -45 -3 0 -13 18 -22 40 -11 30 -21
40 -37 40 -19 0 -20 -3 -10 -15 7 -9 11 -36 8 -70 -2 -38 1 -55 9 -55 16 0 26
17 13 25 -5 3 -10 23 -9 43 l1 37 23 -50 c24 -53 25 -53 46 25 14 50 23 33 17
-31 -3 -36 -1 -39 20 -39 18 0 22 3 14 13 -13 15 -19 98 -8 115 5 8 0 12 -13
12 -16 0 -24 -10 -33 -45z"/>
<path d="M2139 1173 c-13 -3 -14 -13 -8 -61 5 -36 4 -61 -3 -69 -7 -9 -7 -13
0 -13 20 0 42 12 37 21 -3 4 -8 31 -11 59 -5 46 -4 50 16 50 28 0 38 -29 15
-46 -14 -11 -15 -14 -4 -14 18 0 39 19 39 36 0 32 -38 49 -81 37z"/>
<path d="M1948 1123 c-2 -10 -1 -36 2 -58 4 -32 10 -41 28 -43 12 -2 22 1 22
7 0 6 -6 10 -12 9 -18 -4 -23 53 -6 63 10 7 10 9 1 9 -7 0 -13 7 -13 15 0 21
-17 19 -22 -2z"/>
<path d="M1879 1118 c-5 -67 16 -119 41 -103 9 6 8 10 -4 17 -18 10 -23 68 -5
68 6 0 4 7 -5 15 -18 18 -26 19 -27 3z"/>
<path d="M2019 1116 c-2 -3 -3 -25 -1 -49 3 -38 7 -44 23 -40 14 4 16 9 9 23
-6 10 -10 30 -10 44 0 23 -10 33 -21 22z"/>
<path d="M1326 1088 c-8 -33 -6 -46 5 -23 6 14 8 4 6 -38 -2 -53 0 -57 18 -55
12 2 18 9 15 18 -2 8 -5 39 -5 68 0 41 -3 52 -16 52 -9 0 -19 -10 -23 -22z"/>
<path d="M1235 1030 c0 -62 2 -70 19 -70 12 0 16 5 12 16 -3 9 -8 34 -11 57
l-5 42 19 -40 c11 -22 20 -46 20 -52 1 -7 6 -13 11 -13 6 0 10 6 10 13 0 6 3
23 6 37 4 19 3 22 -5 10 -8 -12 -14 -7 -27 28 -10 25 -24 42 -33 42 -13 0 -16
-13 -16 -70z"/>
<path d="M1686 1084 c-19 -19 -20 -44 -3 -68 15 -21 58 -18 65 4 5 13 3 13
-11 1 -20 -16 -47 0 -47 29 0 10 7 23 15 30 14 11 19 7 16 -12 0 -5 6 -8 14
-8 18 0 19 12 3 28 -16 16 -33 15 -52 -4z"/>
<path d="M1767 1068 c10 -58 32 -84 47 -59 3 5 16 7 28 3 17 -4 20 -2 15 12
-4 10 -7 31 -7 47 0 18 -5 29 -14 29 -9 0 -13 -12 -12 -37 1 -28 -3 -38 -14
-38 -10 0 -16 12 -18 38 -2 24 -8 37 -17 37 -11 0 -13 -8 -8 -32z"/>
<path d="M1578 1065 c-16 -36 3 -75 37 -75 17 0 29 8 37 25 16 36 -3 75 -37
75 -17 0 -29 -8 -37 -25z m52 -5 c12 -22 5 -60 -10 -60 -15 0 -31 40 -25 60 8
26 21 25 35 0z"/>
<path d="M1410 1060 c-23 -23 -24 -33 -10 -61 12 -21 50 -25 68 -7 18 18 15
53 -6 71 -24 22 -28 21 -52 -3z m45 -35 c0 -36 -29 -47 -38 -15 -8 30 2 52 22
48 10 -2 16 -14 16 -33z"/>
<path d="M1494 1068 c-3 -4 0 -8 7 -8 8 0 10 -13 6 -40 -3 -22 -4 -40 -2 -40
22 0 30 15 27 50 -3 34 -1 39 12 34 9 -3 16 -1 16 4 0 13 -58 13 -66 0z"/>
<path d="M744 1043 c3 -16 7 -47 8 -70 2 -53 23 -57 23 -6 0 27 4 38 15 38 11
0 15 -11 15 -38 0 -27 4 -37 16 -37 12 0 14 8 10 43 -6 38 -9 42 -34 42 -23
-1 -27 3 -27 27 0 19 -5 28 -16 28 -12 0 -14 -7 -10 -27z"/>
<path d="M643 1052 c-25 -16 -34 -61 -18 -97 13 -32 30 -42 60 -35 6 1 15 3
22 4 21 3 25 14 15 32 -9 16 -10 15 -16 -4 -9 -28 -42 -28 -56 -2 -16 29 -8
81 13 94 15 9 22 6 38 -14 l20 -25 -3 25 c-2 20 -9 26 -33 28 -16 1 -35 -1
-42 -6z"/>
<path d="M1091 1036 c-8 -10 -9 -16 -1 -21 5 -3 13 1 16 9 8 20 24 21 24 1 0
-9 -12 -20 -26 -25 -14 -6 -24 -15 -22 -22 6 -17 36 -34 45 -25 4 5 1 12 -6
16 -7 5 -10 14 -7 20 10 16 29 13 23 -3 -8 -20 15 -37 33 -26 10 7 11 10 3 10
-7 0 -13 12 -13 28 0 47 -43 70 -69 38z"/>
<path d="M920 1025 c-7 -9 -10 -18 -6 -22 3 -4 13 2 20 13 13 17 15 17 21 2 9
-22 2 -59 -10 -58 -5 1 -9 8 -9 16 1 8 -3 13 -10 11 -6 -2 -11 -12 -11 -23 0
-15 8 -19 37 -20 36 -1 36 -1 31 35 -9 58 -36 78 -63 46z"/>
<path d="M1013 995 c1 -33 6 -45 17 -45 12 0 15 9 12 40 -3 34 -2 39 12 34 9
-3 16 -1 16 5 0 6 -13 11 -30 11 -28 0 -29 -1 -27 -45z"/>
<path d="M858 1024 c-3 -3 -2 -20 2 -39 5 -21 3 -38 -3 -44 -12 -12 2 -15 20
-3 8 5 10 22 6 50 -5 39 -12 49 -25 36z"/>
<path d="M1904 944 c3 -9 6 -38 6 -65 0 -32 4 -49 13 -49 8 0 11 14 10 42 -1
24 -2 53 -2 66 -1 13 -7 22 -17 22 -11 0 -14 -5 -10 -16z"/>
<path d="M2024 922 c-17 -11 -22 -35 -13 -60 7 -18 15 -23 36 -20 14 2 28 9
31 16 3 11 1 11 -17 0 -18 -11 -23 -11 -30 0 -12 20 -8 55 8 60 10 3 12 -1 8
-17 -4 -16 -1 -21 14 -21 22 0 23 4 9 31 -11 20 -27 24 -46 11z"/>
<path d="M1403 913 c-16 -3 -23 -11 -23 -26 1 -20 2 -21 14 -4 7 9 18 17 24
17 13 0 20 -88 8 -100 -7 -7 0 -10 17 -10 24 0 26 2 17 26 -13 32 -13 94 0 94
5 0 14 -8 19 -17 9 -16 10 -16 11 5 0 19 -5 22 -32 21 -18 -1 -43 -4 -55 -6z"/>
<path d="M1949 906 c7 -8 13 -29 13 -46 1 -17 6 -29 12 -27 6 2 9 19 8 38 -5
42 -9 49 -29 49 -12 0 -13 -3 -4 -14z"/>
<path d="M1830 895 c-26 -31 8 -83 45 -69 22 9 18 21 -7 20 -25 -1 -37 29 -19
47 9 9 14 8 21 -3 5 -8 12 -11 15 -8 11 11 -5 28 -24 28 -10 0 -24 -7 -31 -15z"/>
<path d="M1608 889 c-22 -12 -23 -52 -2 -73 19 -20 28 -20 44 -1 11 13 9 15
-11 13 -20 -3 -25 2 -27 25 -2 19 1 27 12 27 9 0 16 -5 16 -11 0 -5 5 -7 10
-4 8 5 7 11 -1 21 -13 16 -18 17 -41 3z"/>
<path d="M1677 893 c-8 -8 7 -83 17 -83 7 0 10 14 8 40 -3 32 -1 40 12 40 12
0 16 -10 16 -41 0 -28 4 -39 13 -36 11 3 12 61 0 80 -4 6 -60 7 -66 0z"/>
<path d="M1778 860 c2 -22 9 -40 16 -40 7 0 10 14 8 40 -2 22 -9 40 -16 40 -7
0 -10 -14 -8 -40z"/>
<path d="M1045 880 c-4 -6 -1 -26 5 -45 6 -18 10 -41 8 -49 -2 -8 0 -15 5 -15
25 -3 27 0 16 20 -6 12 -9 39 -7 60 3 38 -12 54 -27 29z"/>
<path d="M1510 871 c-16 -30 4 -71 34 -71 13 0 27 7 30 16 5 14 4 15 -8 5 -18
-15 -40 -5 -32 14 3 8 0 15 -6 17 -13 5 -2 28 13 28 5 0 9 -7 9 -15 0 -8 7
-15 15 -15 13 0 14 4 5 20 -14 25 -46 26 -60 1z"/>
<path d="M960 866 c6 -9 10 -36 9 -63 -2 -26 1 -48 6 -48 6 0 9 18 8 40 l-2
40 18 -39 c11 -22 21 -33 25 -27 12 19 -36 111 -58 111 -15 0 -16 -3 -6 -14z"/>
<path d="M1258 862 c-25 -3 -27 -6 -17 -24 6 -11 9 -29 6 -39 -4 -14 0 -19 14
-19 16 0 17 3 8 19 -13 20 -5 56 10 46 5 -3 12 -1 15 4 8 13 -4 17 -36 13z"/>
<path d="M1310 850 c-9 -17 -8 -26 5 -46 27 -42 69 -21 63 33 -4 37 -50 46
-68 13z m48 -19 c2 -13 -1 -28 -6 -33 -13 -13 -36 28 -28 49 8 21 30 11 34
-16z"/>
<path d="M1160 845 c-26 -31 16 -91 50 -70 17 11 11 22 -12 21 -25 -1 -37 29
-19 47 9 9 14 8 21 -3 5 -8 12 -11 15 -8 11 11 -5 28 -24 28 -10 0 -24 -7 -31
-15z"/>
<path d="M1109 823 c4 -16 6 -34 4 -40 -3 -7 1 -13 9 -13 10 0 12 11 10 40 -3
25 -9 40 -17 40 -10 0 -12 -7 -6 -27z"/>
</g>
</svg>
